Coordinates
version=1
nRows=10
nColumns=63
inDegrees=yes

Units are S.I. units (second, meters, Newtons, ...)
If the header above contains a line with 'inDegrees', this indicates whether rotational values are in degrees (yes) or radians (no).

endheader
time	pelvis_tilt	pelvis_list	pelvis_rotation	pelvis_tx	pelvis_ty	pelvis_tz	hip_flexion_r	hip_adduction_r	hip_rotation_r	knee_angle_r	knee_angle_r_beta	ankle_angle_r	subtalar_angle_r	mtp_angle_r	hip_flexion_l	hip_adduction_l	hip_rotation_l	knee_angle_l	knee_angle_l_beta	ankle_angle_l	subtalar_angle_l	mtp_angle_l	L5_S1_Flex_Ext	L5_S1_Lat_Bending	L5_S1_axial_rotation	L4_L5_Flex_Ext	L4_L5_Lat_Bending	L4_L5_axial_rotation	L3_L4_Flex_Ext	L3_L4_Lat_Bending	L3_L4_axial_rotation	L2_L3_Flex_Ext	L2_L3_Lat_Bending	L2_L3_axial_rotation	L1_L2_Flex_Ext	L1_L2_Lat_Bending	L1_L2_axial_rotation	L1_T12_Flex_Ext	L1_T12_Lat_Bending	L1_T12_axial_rotation	Abs_r3	Abs_r2	Abs_r1	Abs_t1	Abs_t2	neck_flexion	neck_bending	neck_rotation	arm_flex_r	arm_add_r	arm_rot_r	elbow_flex_r	pro_sup_r	wrist_flex_r	wrist_dev_r	arm_flex_l	arm_add_l	arm_rot_l	elbow_flex_l	pro_sup_l	wrist_flex_l	wrist_dev_l
2.508475	2.374166	-5.006420	87.592107	0.241293	1.035712	0.078789	-3.462690	0.844934	-2.452426	10.282327	0.179460	27.299505	9.624515	0.000000	-5.638307	1.035331	-4.661837	6.427317	0.112178	22.965713	-12.787949	0.000000	0.129308	0.112494	1.404369	0.240138	0.149617	1.492142	0.212440	0.273519	1.492142	0.147786	0.273519	1.228823	0.120075	0.229398	1.141050	0.073887	0.174254	1.053277	0.923634	1.272558	7.810679	0.000000	0.000000	27.154752	-4.027942	-4.881587	1.065091	-18.006302	67.864663	22.018107	47.078410	-4.196964	-0.694862	6.733783	-18.218156	102.463408	21.380265	38.352339	-6.750574	-8.143500
2.525424	2.414440	-4.990046	87.573879	0.241316	1.035828	0.078584	-3.511060	0.871063	-2.571949	10.225940	0.178476	27.309568	9.920826	0.000000	-5.672771	0.999689	-4.656644	6.473581	0.112985	22.871394	-12.822879	0.000000	0.129102	0.115074	1.411875	0.239755	0.153049	1.500117	0.212101	0.279792	1.500117	0.147550	0.279792	1.235390	0.119884	0.234660	1.147148	0.073769	0.178250	1.058906	0.922160	1.301745	7.852423	0.000000	0.000000	27.118092	-4.138915	-5.061743	0.978391	-18.042024	66.870724	22.324543	47.656155	-4.202609	-0.273121	6.731486	-18.239268	102.343746	21.436236	39.055690	-6.816218	-7.935131
2.542373	2.440929	-4.972812	87.567709	0.241326	1.035916	0.078385	-3.559099	0.885690	-2.677200	10.179978	0.177674	27.336898	10.146370	0.000000	-5.707450	0.977873	-4.642474	6.529885	0.113968	22.796423	-12.877124	0.000000	0.128769	0.116640	1.415856	0.239136	0.155132	1.504348	0.211554	0.283600	1.504348	0.147170	0.283600	1.238874	0.119574	0.237853	1.150383	0.073578	0.180676	1.061892	0.919781	1.319460	7.874569	0.000000	0.000000	27.087569	-4.214601	-5.186301	0.883156	-18.079959	65.646711	22.654517	48.848297	-4.172454	0.187814	6.757947	-18.231811	102.534799	21.466712	39.322866	-6.867871	-7.803313
2.559322	2.452874	-4.955309	87.577712	0.241317	1.035976	0.078194	-3.607116	0.885139	-2.812338	10.141665	0.177005	27.389298	10.355047	0.000000	-5.741091	0.968466	-4.649169	6.591330	0.115040	22.757977	-12.898095	0.000000	0.128223	0.116807	1.416161	0.238123	0.155353	1.504671	0.210657	0.284005	1.504671	0.146546	0.284005	1.239141	0.119068	0.238193	1.150631	0.073266	0.180934	1.062121	0.915882	1.321345	7.876264	0.000000	0.000000	27.064470	-4.266710	-5.284545	0.767587	-18.118126	64.178976	23.010438	50.467564	-4.093327	0.690646	6.793514	-18.208420	102.888248	21.476528	39.271041	-6.905942	-7.735499
2.576271	2.451108	-4.940696	87.593920	0.241301	1.036010	0.078018	-3.648142	0.868107	-2.990121	10.116009	0.176558	27.467764	10.574958	0.000000	-5.772237	0.971074	-4.680535	6.649345	0.116053	22.752651	-12.888362	0.000000	0.128090	0.115556	1.414775	0.237876	0.153690	1.503199	0.210439	0.280963	1.503199	0.146394	0.280963	1.237928	0.118944	0.235642	1.149505	0.073191	0.178996	1.061081	0.914934	1.307193	7.868556	0.000000	0.000000	27.045902	-4.292157	-5.355840	0.657169	-18.154320	62.691982	23.361260	52.184310	-3.954504	1.158580	6.852654	-18.164968	103.466911	21.455198	38.871961	-6.915501	-7.735462
2.593220	2.440589	-4.932385	87.637246	0.241268	1.036023	0.077877	-3.685415	0.849578	-3.157461	10.088152	0.176071	27.541806	10.707439	0.000000	-5.779403	0.968419	-4.839312	6.733566	0.117523	22.844548	-12.667286	0.000000	0.128343	0.113104	1.407388	0.238345	0.150429	1.495349	0.210854	0.275002	1.495349	0.146683	0.275002	1.231464	0.119179	0.230643	1.143502	0.073335	0.175199	1.055541	0.916739	1.279460	7.827467	0.000000	0.000000	27.040324	-4.282245	-5.393539	0.535940	-18.171041	61.060998	23.707100	54.060315	-3.773251	1.668090	6.924560	-18.110539	104.126538	21.417522	38.265589	-6.890947	-7.709041
2.610169	2.424729	-4.926570	87.678433	0.241234	1.036014	0.077758	-3.717494	0.830689	-3.265422	10.065068	0.175669	27.608837	10.732839	0.000000	-5.790882	0.970681	-5.036057	6.790617	0.118519	22.970840	-12.392974	0.000000	0.128461	0.110380	1.400232	0.238565	0.146806	1.487747	0.211049	0.268379	1.487747	0.146818	0.268379	1.225203	0.119289	0.225088	1.137689	0.073403	0.170979	1.050174	0.917584	1.248645	7.787671	0.000000	0.000000	27.040857	-4.247426	-5.399511	0.384823	-18.180869	59.245020	24.066538	56.061527	-3.507065	2.197062	7.016654	-18.033967	104.917837	21.343287	37.489302	-6.797919	-7.715511
2.627119	2.407865	-4.927404	87.738282	0.241146	1.035988	0.077664	-3.737493	0.804254	-3.468849	10.055908	0.175509	27.688847	10.836916	0.000000	-5.799898	0.987065	-4.978793	6.812348	0.118898	23.015578	-12.464187	0.000000	0.129402	0.107717	1.391112	0.240312	0.143264	1.478056	0.212594	0.261904	1.478056	0.147893	0.261904	1.217223	0.120162	0.219657	1.130278	0.073940	0.166854	1.043334	0.924304	1.218518	7.736946	0.000000	0.000000	27.046251	-4.229257	-5.437261	0.240543	-18.180586	57.559462	24.410726	57.743631	-3.196045	2.710844	7.185762	-17.910695	106.175600	21.217169	36.333467	-6.663236	-7.775071
2.644068	2.388687	-4.938770	87.753781	0.241123	1.035950	0.077609	-3.731792	0.778915	-3.568226	10.064992	0.175667	27.760720	10.852732	0.000000	-5.797767	1.004967	-5.027525	6.821701	0.119061	23.108756	-12.434599	0.000000	0.131421	0.105113	1.388699	0.244061	0.139801	1.475493	0.215911	0.255572	1.475493	0.150201	0.255572	1.215112	0.122037	0.214347	1.128318	0.075094	0.162820	1.041524	0.938724	1.189061	7.723527	0.000000	0.000000	27.059595	-4.177219	-5.440862	0.121758	-18.169657	56.022760	24.714412	59.308048	-2.860506	3.169745	7.381511	-17.758873	107.583568	21.035132	35.131714	-6.432445	-7.834536
2.661017	2.371278	-4.951669	87.763647	0.241103	1.035922	0.077602	-3.718078	0.762104	-3.593866	10.076728	0.175872	27.819865	10.783064	0.000000	-5.788241	1.013578	-5.195916	6.823837	0.119098	23.265694	-12.228134	0.000000	0.132983	0.102963	1.386526	0.246962	0.136941	1.473184	0.218477	0.250345	1.473184	0.151986	0.250345	1.213210	0.123488	0.209963	1.126552	0.075986	0.159490	1.039895	0.949881	1.164742	7.711442	0.000000	0.000000	27.075374	-4.089763	-5.418098	0.037775	-18.150632	54.693843	24.970880	60.702437	-2.534375	3.546326	7.608733	-17.582560	109.107899	20.816228	33.930592	-6.127986	-7.850640
